<?xml version="1.0" encoding="UTF-8" standalone="no"?>
<!DOCTYPE svg PUBLIC "-//W3C//DTD SVG 1.1//EN"
 "http://www.w3.org/Graphics/SVG/1.1/DTD/svg11.dtd">
<!-- Generated by graphviz version 2.42.4 (0)
 -->
<!-- Title: MLD Pages: 1 -->
<svg width="208pt" height="435pt"
 viewBox="0.00 0.00 208.00 435.00" xmlns="http://www.w3.org/2000/svg" xmlns:xlink="http://www.w3.org/1999/xlink">
<g id="graph0" class="graph" transform="scale(1 1) rotate(0) translate(18 417)">
<title>MLD</title>
<polygon fill="white" stroke="transparent" points="-18,18 -18,-417 190,-417 190,18 -18,18"/>
<!-- categories -->
<g id="node1" class="node">
<title>categories</title>
<path fill="#f1f8fc" stroke="#00497c" stroke-width="1.5" d="M15.5,-334.5C15.5,-334.5 156.5,-334.5 156.5,-334.5 162.5,-334.5 168.5,-340.5 168.5,-346.5 168.5,-346.5 168.5,-386.5 168.5,-386.5 168.5,-392.5 162.5,-398.5 156.5,-398.5 156.5,-398.5 15.5,-398.5 15.5,-398.5 9.5,-398.5 3.5,-392.5 3.5,-386.5 3.5,-386.5 3.5,-346.5 3.5,-346.5 3.5,-340.5 9.5,-334.5 15.5,-334.5"/>
<text text-anchor="middle" x="86" y="-386.1" font-family="Arial" font-size="10.50">categories</text>
<polyline fill="none" stroke="#00497c" stroke-width="1.5" points="3.5,-378.5 168.5,-378.5 "/>
<text text-anchor="start" x="11.5" y="-366.1" font-family="Arial" font-size="10.50">PK id : INT UNSIGNED</text>
<text text-anchor="start" x="11.5" y="-354.1" font-family="Arial" font-size="10.50">name : VARCHAR(80) UNIQUE</text>
<text text-anchor="start" x="11.5" y="-342.1" font-family="Arial" font-size="10.50">slug : VARCHAR(80) UNIQUE</text>
</g>
<!-- specialties -->
<g id="node2" class="node">
<title>specialties</title>
<path fill="#f1f8fc" stroke="#00497c" stroke-width="1.5" d="M12,-197.5C12,-197.5 160,-197.5 160,-197.5 166,-197.5 172,-203.5 172,-209.5 172,-209.5 172,-261.5 172,-261.5 172,-267.5 166,-273.5 160,-273.5 160,-273.5 12,-273.5 12,-273.5 6,-273.5 0,-267.5 0,-261.5 0,-261.5 0,-209.5 0,-209.5 0,-203.5 6,-197.5 12,-197.5"/>
<text text-anchor="middle" x="86" y="-261.1" font-family="Arial" font-size="10.50">specialties</text>
<polyline fill="none" stroke="#00497c" stroke-width="1.5" points="0,-253.5 172,-253.5 "/>
<text text-anchor="start" x="8" y="-241.1" font-family="Arial" font-size="10.50">PK id : INT UNSIGNED</text>
<text text-anchor="start" x="8" y="-229.1" font-family="Arial" font-size="10.50">name : VARCHAR(100)</text>
<text text-anchor="start" x="8" y="-217.1" font-family="Arial" font-size="10.50">FK category_id : INT UNSIGNED</text>
<text text-anchor="start" x="8" y="-205.1" font-family="Arial" font-size="10.50">UNIQUE(name, category_id)</text>
</g>
<!-- categories&#45;&gt;specialties -->
<g id="edge1" class="edge">
<title>categories&#45;&gt;specialties</title>
<path fill="none" stroke="#384050" stroke-width="1.2" d="M86,-334.27C86,-319.21 86,-300.8 86,-284.04"/>
<polygon fill="#384050" stroke="#384050" stroke-width="1.2" points="89.5,-283.87 86,-273.87 82.5,-283.87 89.5,-283.87"/>
<text text-anchor="middle" x="105.5" y="-301.4" font-family="Arial" font-size="9.50"> &#160;1 &#45;&gt; N &#160;</text>
</g>
<!-- artisans -->
<g id="node3" class="node">
<title>artisans</title>
<path fill="#f1f8fc" stroke="#00497c" stroke-width="1.5" d="M12,-0.5C12,-0.5 160,-0.5 160,-0.5 166,-0.5 172,-6.5 172,-12.5 172,-12.5 172,-124.5 172,-124.5 172,-130.5 166,-136.5 160,-136.5 160,-136.5 12,-136.5 12,-136.5 6,-136.5 0,-130.5 0,-124.5 0,-124.5 0,-12.5 0,-12.5 0,-6.5 6,-0.5 12,-0.5"/>
<text text-anchor="middle" x="86" y="-124.1" font-family="Arial" font-size="10.50">artisans</text>
<polyline fill="none" stroke="#00497c" stroke-width="1.5" points="0,-116.5 172,-116.5 "/>
<text text-anchor="start" x="8" y="-104.1" font-family="Arial" font-size="10.50">PK id : INT UNSIGNED</text>
<text text-anchor="start" x="8" y="-92.1" font-family="Arial" font-size="10.50">name : VARCHAR(160)</text>
<text text-anchor="start" x="8" y="-80.1" font-family="Arial" font-size="10.50">rating : DECIMAL(2,1)</text>
<text text-anchor="start" x="8" y="-68.1" font-family="Arial" font-size="10.50">city : VARCHAR(120)</text>
<text text-anchor="start" x="8" y="-56.1" font-family="Arial" font-size="10.50">about : TEXT</text>
<text text-anchor="start" x="8" y="-44.1" font-family="Arial" font-size="10.50">email : VARCHAR(190)</text>
<text text-anchor="start" x="8" y="-32.1" font-family="Arial" font-size="10.50">website : VARCHAR(255) NULL</text>
<text text-anchor="start" x="8" y="-20.1" font-family="Arial" font-size="10.50">is_top : BOOLEAN</text>
<text text-anchor="start" x="8" y="-8.1" font-family="Arial" font-size="10.50">FK specialty_id : INT UNSIGNED</text>
</g>
<!-- specialties&#45;&gt;artisans -->
<g id="edge2" class="edge">
<title>specialties&#45;&gt;artisans</title>
<path fill="none" stroke="#384050" stroke-width="1.2" d="M86,-197.47C86,-182.46 86,-164.53 86,-146.91"/>
<polygon fill="#384050" stroke="#384050" stroke-width="1.2" points="89.5,-146.59 86,-136.59 82.5,-146.59 89.5,-146.59"/>
<text text-anchor="middle" x="105.5" y="-164.4" font-family="Arial" font-size="9.50"> &#160;1 &#45;&gt; N &#160;</text>
</g>
</g>
</svg>
